<?xml version="1.0" encoding="utf-8" standalone="no"?><!DOCTYPE svg PUBLIC "-//W3C//DTD SVG 20010904//EN" "http://www.w3.org/TR/2001/REC-SVG-20010904/DTD/svg10.dtd"><svg xmlns="http://www.w3.org/2000/svg" width="435" height="216" xmlns:xlink="http://www.w3.org/1999/xlink"><source><![CDATA[    HostedService->>EventBus: send msg: Hello World!
    EventBus->>HostedService: HostedService says Hello!]]></source><desc></desc><defs><marker viewBox="0 0 5 5" markerWidth="5" markerHeight="5" orient="auto" refX="5" refY="2.5" id="markerArrowBlock"><path d="M 0 0 L 5 2.5 L 0 5 z"></path></marker><marker viewBox="0 0 9.6 16" markerWidth="4" markerHeight="16" orient="auto" refX="9.6" refY="8" id="markerArrowOpen"><path d="M 9.6,8 1.92,16 0,13.7 5.76,8 0,2.286 1.92,0 9.6,8 z"></path></marker></defs><g class="title"></g><g class="actor"><rect x="10" y="20" width="150" height="39" style="stroke-width: 2px;" stroke="#000000" fill="#ffffff"></rect><text x="20" y="45" style="font-size: 16px; font-family: Andale Mono, monospace;"><tspan x="20">HostedService</tspan></text></g><g class="actor"><rect x="10" y="157" width="150" height="39" style="stroke-width: 2px;" stroke="#000000" fill="#ffffff"></rect><text x="20" y="182" style="font-size: 16px; font-family: Andale Mono, monospace;"><tspan x="20">HostedService</tspan></text></g><line x1="85" x2="85" y1="59" y2="157" style="stroke-width: 2px;" stroke="#000000" fill="none"></line><g class="actor"><rect x="305" y="20" width="100" height="39" style="stroke-width: 2px;" stroke="#000000" fill="#ffffff"></rect><text x="315" y="45" style="font-size: 16px; font-family: Andale Mono, monospace;"><tspan x="315">EventBus</tspan></text></g><g class="actor"><rect x="305" y="157" width="100" height="39" style="stroke-width: 2px;" stroke="#000000" fill="#ffffff"></rect><text x="315" y="182" style="font-size: 16px; font-family: Andale Mono, monospace;"><tspan x="315">EventBus</tspan></text></g><line x1="355" x2="355" y1="59" y2="157" style="stroke-width: 2px;" stroke="#000000" fill="none"></line><g class="signal"><text x="110" y="89.5" style="font-size: 16px; font-family: Andale Mono, monospace;"><tspan x="110">send msg: Hello World!</tspan></text><line x1="85" x2="355" y1="98" y2="98" style="stroke-width: 2px; marker-end: url(&quot;#markerArrowOpen&quot;);" stroke="#000000" fill="none"></line></g><g class="signal"><text x="95" y="128.5" style="font-size: 16px; font-family: Andale Mono, monospace;"><tspan x="95">HostedService says Hello!</tspan></text><line x1="355" x2="85" y1="137" y2="137" style="stroke-width: 2px; marker-end: url(&quot;#markerArrowOpen&quot;);" stroke="#000000" fill="none"></line></g></svg>